<svg version="1.1" viewBox="0.0 0.0 645.2598425196851 432.50918635170603" fill="none" stroke="none" stroke-linecap="square" stroke-miterlimit="10" xmlns:xlink="http://www.w3.org/1999/xlink" xmlns="http://www.w3.org/2000/svg"><clipPath id="p.0"><path d="m0 0l645.2598 0l0 432.5092l-645.2598 0l0 -432.5092z" clip-rule="nonzero"/></clipPath><g clip-path="url(#p.0)"><path fill="#000000" fill-opacity="0.0" d="m0 0l645.2598 0l0 432.5092l-645.2598 0z" fill-rule="evenodd"/><path fill="#000000" fill-opacity="0.0" d="m192.76903 71.60105l213.29134 0l0 243.3071l-213.29134 0z" fill-rule="evenodd"/><path fill="#000000" d="m246.68033 196.94333l3.03125 0.765625q-0.953125 3.734375 -3.4375 5.703125q-2.46875 1.953125 -6.046875 1.953125q-3.703125 0 -6.03125 -1.5q-2.3125 -1.515625 -3.53125 -4.375q-1.203125 -2.859375 -1.203125 -6.140625q0 -3.578125 1.359375 -6.234375q1.375 -2.671875 3.890625 -4.046875q2.53125 -1.390625 5.5625 -1.390625q3.4375 0 5.78125 1.75q2.34375 1.75 3.265625 4.921875l-2.984375 0.703125q-0.796875 -2.5 -2.3125 -3.640625q-1.515625 -1.140625 -3.8125 -1.140625q-2.640625 0 -4.421875 1.265625q-1.765625 1.265625 -2.484375 3.40625q-0.71875 2.125 -0.71875 4.390625q0 2.921875 0.84375 5.109375q0.859375 2.171875 2.65625 3.25q1.796875 1.078125 3.890625 1.078125q2.546875 0 4.3125 -1.46875q1.765625 -1.46875 2.390625 -4.359375zm4.890625 -8.5625l13.484375 0l0 2.328125l-5.34375 0l0 14.265625l-2.796875 0l0 -14.265625l-5.34375 0l0 -2.328125zm14.765625 8.296875q0 -4.609375 2.5625 -6.828125q2.140625 -1.84375 5.21875 -1.84375q3.421875 0 5.59375 2.25q2.171875 2.234375 2.171875 6.1875q0 3.203125 -0.96875 5.046875q-0.953125 1.828125 -2.796875 2.84375q-1.828125 1.015625 -4.0 1.015625q-3.484375 0 -5.640625 -2.234375q-2.140625 -2.234375 -2.140625 -6.4375zm2.890625 0q0 3.1875 1.390625 4.78125q1.390625 1.578125 3.5 1.578125q2.09375 0 3.484375 -1.59375q1.390625 -1.59375 1.390625 -4.859375q0 -3.078125 -1.40625 -4.65625q-1.390625 -1.59375 -3.46875 -1.59375q-2.109375 0 -3.5 1.578125q-1.390625 1.578125 -1.390625 4.765625zm16.625 -8.296875l13.0625 0l0 16.59375l-2.796875 0l0 -14.265625l-7.453125 0l0 8.265625q0 2.890625 -0.1875 3.8125q-0.1875 0.921875 -1.03125 1.609375q-0.84375 0.6875 -2.4375 0.6875q-0.984375 0 -2.265625 -0.125l0 -2.34375l1.234375 0q0.875 0 1.25 -0.171875q0.375 -0.1875 0.5 -0.578125q0.125 -0.390625 0.125 -2.546875l0 -10.9375zm16.609375 8.296875q0 -4.609375 2.5625 -6.828125q2.140625 -1.84375 5.21875 -1.84375q3.421875 0 5.59375 2.25q2.171875 2.234375 2.171875 6.1875q0 3.203125 -0.96875 5.046875q-0.953125 1.828125 -2.796875 2.84375q-1.828125 1.015625 -4.0 1.015625q-3.484375 0 -5.640625 -2.234375q-2.140625 -2.234375 -2.140625 -6.4375zm2.890625 0q0 3.1875 1.390625 4.78125q1.390625 1.578125 3.5 1.578125q2.09375 0 3.484375 -1.59375q1.390625 -1.59375 1.390625 -4.859375q0 -3.078125 -1.40625 -4.65625q-1.390625 -1.59375 -3.46875 -1.59375q-2.109375 0 -3.5 1.578125q-1.390625 1.578125 -1.390625 4.765625zm15.96875 -8.296875l6.484375 0q2.390625 0 3.546875 0.40625q1.171875 0.390625 2.0 1.453125q0.84375 1.0625 0.84375 2.546875q0 1.1875 -0.5 2.078125q-0.484375 0.875 -1.46875 1.46875q1.171875 0.390625 1.9375 1.46875q0.78125 1.0625 0.78125 2.53125q-0.15625 2.359375 -1.6875 3.5q-1.53125 1.140625 -4.453125 1.140625l-7.484375 0l0 -16.59375zm2.8125 6.984375l3.0 0q1.796875 0 2.46875 -0.1875q0.671875 -0.1875 1.203125 -0.75q0.53125 -0.578125 0.53125 -1.375q0 -1.3125 -0.9375 -1.828125q-0.921875 -0.515625 -3.171875 -0.515625l-3.09375 0l0 4.65625zm0 7.296875l3.703125 0q2.390625 0 3.28125 -0.546875q0.890625 -0.5625 0.9375 -1.921875q0 -0.796875 -0.515625 -1.46875q-0.515625 -0.6875 -1.34375 -0.859375q-0.828125 -0.1875 -2.65625 -0.1875l-3.40625 0l0 4.984375zm24.640625 0.265625q-1.5625 1.328125 -3.015625 1.875q-1.4375 0.546875 -3.09375 0.546875q-2.734375 0 -4.203125 -1.328125q-1.46875 -1.34375 -1.46875 -3.421875q0 -1.21875 0.546875 -2.21875q0.5625 -1.015625 1.453125 -1.625q0.90625 -0.609375 2.03125 -0.921875q0.828125 -0.21875 2.5 -0.421875q3.40625 -0.40625 5.015625 -0.96875q0.015625 -0.578125 0.015625 -0.734375q0 -1.71875 -0.796875 -2.421875q-1.078125 -0.953125 -3.203125 -0.953125q-1.984375 0 -2.9375 0.703125q-0.9375 0.6875 -1.390625 2.453125l-2.75 -0.375q0.375 -1.765625 1.234375 -2.84375q0.859375 -1.09375 2.484375 -1.671875q1.625 -0.59375 3.765625 -0.59375q2.125 0 3.453125 0.5q1.328125 0.5 1.953125 1.265625q0.625 0.75 0.875 1.90625q0.140625 0.71875 0.140625 2.59375l0 3.75q0 3.921875 0.171875 4.96875q0.1875 1.03125 0.71875 1.984375l-2.9375 0q-0.4375 -0.875 -0.5625 -2.046875zm-0.234375 -6.28125q-1.53125 0.625 -4.59375 1.0625q-1.734375 0.25 -2.453125 0.5625q-0.71875 0.3125 -1.109375 0.921875q-0.390625 0.59375 -0.390625 1.328125q0 1.125 0.84375 1.875q0.859375 0.75 2.5 0.75q1.625 0 2.890625 -0.703125q1.265625 -0.71875 1.859375 -1.953125q0.453125 -0.953125 0.453125 -2.8125l0 -1.03125zm20.265625 -8.265625l0 16.59375l-2.796875 0l0 -6.46875l-1.625 0q-1.484375 0 -2.21875 0.390625q-0.71875 0.375 -2.109375 2.453125l-2.453125 3.625l-3.484375 0l3.03125 -4.46875q1.390625 -2.046875 2.765625 -2.3125q-2.40625 -0.328125 -3.578125 -1.734375q-1.15625 -1.40625 -1.15625 -3.234375q0 -2.15625 1.515625 -3.5q1.53125 -1.34375 4.421875 -1.34375l7.6875 0zm-2.796875 2.328125l-4.0 0q-2.515625 0 -3.25 0.78125q-0.71875 0.78125 -0.71875 1.828125q0 1.484375 1.0625 2.1875q1.078125 0.6875 3.796875 0.6875l3.109375 0l0 -5.484375z" fill-rule="nonzero"/></g></svg>