<svg width="997" height="629" viewBox="0 0 997 629" fill="none" xmlns="http://www.w3.org/2000/svg">
<g clip-path="url(#clip0)">
<rect width="997" height="629" fill="white"/>
<path d="M882.103 523.616C881.971 524.744 881.554 525.616 880.851 526.231C880.152 526.841 879.222 527.146 878.06 527.146C876.8 527.146 875.79 526.695 875.028 525.792C874.271 524.888 873.893 523.68 873.893 522.166V521.141C873.893 520.149 874.068 519.278 874.42 518.526C874.776 517.774 875.279 517.198 875.929 516.797C876.578 516.392 877.33 516.189 878.185 516.189C879.317 516.189 880.226 516.507 880.909 517.142C881.593 517.771 881.991 518.646 882.103 519.764H880.689C880.567 518.914 880.301 518.299 879.891 517.918C879.486 517.537 878.917 517.347 878.185 517.347C877.286 517.347 876.581 517.679 876.068 518.343C875.56 519.007 875.306 519.952 875.306 521.177V522.21C875.306 523.367 875.548 524.288 876.031 524.971C876.515 525.655 877.191 525.997 878.06 525.997C878.841 525.997 879.439 525.821 879.854 525.469C880.274 525.113 880.553 524.495 880.689 523.616H882.103ZM890.313 519.075V527H888.951V520.196H886.256L886.095 523.162C886.007 524.524 885.777 525.499 885.406 526.084C885.04 526.67 884.457 526.976 883.656 527H883.114V525.806L883.502 525.777C883.941 525.728 884.256 525.474 884.447 525.015C884.637 524.556 884.759 523.707 884.813 522.466L884.959 519.075H890.313ZM895.082 525.015L896.927 519.075H898.377L895.191 528.223C894.698 529.542 893.915 530.201 892.84 530.201L892.584 530.179L892.079 530.083V528.985L892.445 529.014C892.904 529.014 893.26 528.921 893.514 528.736C893.773 528.55 893.985 528.211 894.151 527.718L894.452 526.912L891.625 519.075H893.104L895.082 525.015ZM905.914 523.558H904.962V527H903.607V523.558H902.655L900.436 527H898.722L901.556 522.898L898.993 519.075H900.633L902.677 522.356H903.607V519.075H904.962V522.356H905.885L907.943 519.075H909.583L907.013 522.906L909.847 527H908.133L905.914 523.558ZM914.22 527.146C913.146 527.146 912.271 526.795 911.598 526.092C910.924 525.384 910.587 524.439 910.587 523.257V523.008C910.587 522.222 910.736 521.521 911.034 520.906C911.336 520.286 911.756 519.803 912.293 519.456C912.835 519.104 913.421 518.929 914.051 518.929C915.082 518.929 915.882 519.268 916.454 519.947C917.025 520.625 917.311 521.597 917.311 522.862V523.426H911.942C911.961 524.207 912.188 524.839 912.623 525.323C913.062 525.801 913.619 526.041 914.293 526.041C914.771 526.041 915.177 525.943 915.509 525.748C915.841 525.552 916.131 525.293 916.38 524.971L917.208 525.616C916.544 526.636 915.548 527.146 914.22 527.146ZM914.051 520.042C913.504 520.042 913.045 520.242 912.674 520.643C912.303 521.038 912.074 521.595 911.986 522.312H915.956V522.21C915.917 521.521 915.731 520.989 915.399 520.613C915.067 520.232 914.618 520.042 914.051 520.042ZM922.364 519.529C923.36 519.529 924.156 519.864 924.752 520.533C925.353 521.197 925.653 522.073 925.653 523.162V523.287C925.653 524.034 925.509 524.703 925.221 525.293C924.933 525.879 924.518 526.336 923.976 526.663C923.438 526.985 922.818 527.146 922.115 527.146C921.051 527.146 920.194 526.792 919.544 526.084C918.895 525.372 918.57 524.417 918.57 523.221V522.562C918.57 520.896 918.878 519.573 919.493 518.592C920.113 517.61 921.026 517.012 922.232 516.797C922.916 516.675 923.377 516.526 923.617 516.351C923.856 516.175 923.976 515.933 923.976 515.625H925.089C925.089 516.236 924.95 516.712 924.671 517.054C924.398 517.396 923.958 517.637 923.353 517.779L922.342 518.006C921.537 518.196 920.931 518.519 920.526 518.973C920.125 519.422 919.864 520.022 919.742 520.774C920.46 519.944 921.334 519.529 922.364 519.529ZM922.101 520.643C921.437 520.643 920.909 520.867 920.519 521.316C920.128 521.761 919.933 522.378 919.933 523.169V523.287C919.933 524.136 920.128 524.81 920.519 525.308C920.914 525.801 921.446 526.048 922.115 526.048C922.789 526.048 923.321 525.799 923.712 525.301C924.103 524.803 924.298 524.075 924.298 523.118C924.298 522.371 924.1 521.773 923.705 521.324C923.314 520.87 922.779 520.643 922.101 520.643ZM933.519 527H932.164V523.616H928.524V527H927.162V519.075H928.524V522.51H932.164V519.075H933.519V527ZM937.181 521.807H939.239C940.138 521.817 940.848 522.051 941.371 522.51C941.893 522.969 942.154 523.592 942.154 524.378C942.154 525.169 941.886 525.804 941.349 526.282C940.812 526.761 940.089 527 939.181 527H935.826V519.075H937.181V521.807ZM944.981 527H943.619V519.075H944.981V527ZM937.181 522.913V525.894H939.195C939.703 525.894 940.096 525.765 940.375 525.506C940.653 525.242 940.792 524.883 940.792 524.429C940.792 523.99 940.655 523.631 940.382 523.353C940.113 523.069 939.735 522.923 939.247 522.913H937.181ZM952.474 519.075H953.829V527H952.474V521.221L948.819 527H947.464V519.075H948.819V524.861L952.474 519.075ZM952.84 516.189C952.84 516.78 952.638 517.256 952.232 517.618C951.832 517.974 951.305 518.152 950.65 518.152C949.996 518.152 949.466 517.972 949.061 517.61C948.656 517.249 948.453 516.775 948.453 516.189H949.559C949.559 516.531 949.652 516.8 949.837 516.995C950.023 517.186 950.294 517.281 950.65 517.281C950.992 517.281 951.258 517.186 951.449 516.995C951.644 516.805 951.742 516.536 951.742 516.189H952.84ZM898.678 545V537.075H901.769C902.823 537.075 903.631 537.261 904.193 537.632C904.759 537.998 905.042 538.538 905.042 539.25C905.042 539.617 904.933 539.949 904.713 540.247C904.493 540.54 904.168 540.764 903.739 540.92C904.217 541.033 904.601 541.252 904.889 541.58C905.182 541.907 905.328 542.297 905.328 542.751C905.328 543.479 905.06 544.036 904.522 544.421C903.99 544.807 903.236 545 902.259 545H898.678ZM900.033 541.521V543.909H902.274C902.84 543.909 903.263 543.804 903.541 543.594C903.824 543.384 903.966 543.088 903.966 542.708C903.966 541.917 903.385 541.521 902.223 541.521H900.033ZM900.033 540.437H901.783C903.053 540.437 903.688 540.066 903.688 539.324C903.688 538.582 903.087 538.198 901.886 538.174H900.033V540.437ZM909.781 539.968L911.539 537.075H913.121L910.528 540.994L913.202 545H911.634L909.803 542.034L907.972 545H906.397L909.071 540.994L906.478 537.075H908.045L909.781 539.968ZM914.059 540.964C914.059 540.188 914.21 539.49 914.513 538.87C914.82 538.25 915.245 537.771 915.787 537.434C916.334 537.097 916.957 536.929 917.655 536.929C918.734 536.929 919.605 537.302 920.27 538.049C920.938 538.796 921.273 539.79 921.273 541.03V541.125C921.273 541.897 921.124 542.59 920.826 543.206C920.533 543.816 920.111 544.292 919.559 544.634C919.012 544.976 918.382 545.146 917.669 545.146C916.595 545.146 915.724 544.773 915.055 544.026C914.391 543.279 914.059 542.29 914.059 541.06V540.964ZM915.421 541.125C915.421 542.004 915.624 542.71 916.029 543.242C916.439 543.774 916.986 544.041 917.669 544.041C918.358 544.041 918.905 543.772 919.31 543.235C919.715 542.693 919.918 541.936 919.918 540.964C919.918 540.095 919.71 539.392 919.295 538.855C918.885 538.313 918.338 538.042 917.655 538.042C916.986 538.042 916.446 538.308 916.036 538.84C915.626 539.373 915.421 540.134 915.421 541.125ZM922.379 543.894L922.848 543.315C923.375 542.632 923.675 541.606 923.749 540.239L923.873 537.075H928.978V543.894H929.996V547.329H928.641V545H923.111V547.329H921.756L921.764 543.894H922.379ZM923.983 543.894H927.623V538.328H925.184L925.104 540.217C925.021 541.794 924.647 543.02 923.983 543.894Z" fill="black"/>
<path d="M889.034 189.012C889.034 190.057 888.858 190.97 888.506 191.751C888.155 192.528 887.657 193.121 887.012 193.531C886.368 193.941 885.616 194.146 884.756 194.146C883.917 194.146 883.172 193.941 882.522 193.531C881.873 193.116 881.368 192.528 881.006 191.766C880.65 191 880.467 190.113 880.457 189.107V188.338C880.457 187.313 880.635 186.407 880.992 185.621C881.348 184.835 881.851 184.234 882.5 183.819C883.155 183.399 883.902 183.189 884.742 183.189C885.596 183.189 886.348 183.397 886.998 183.812C887.652 184.222 888.155 184.82 888.506 185.606C888.858 186.388 889.034 187.298 889.034 188.338V189.012ZM887.635 188.324C887.635 187.059 887.381 186.09 886.873 185.416C886.365 184.737 885.655 184.398 884.742 184.398C883.853 184.398 883.152 184.737 882.64 185.416C882.132 186.09 881.871 187.027 881.856 188.229V189.012C881.856 190.238 882.112 191.202 882.625 191.905C883.143 192.604 883.853 192.953 884.756 192.953C885.665 192.953 886.368 192.623 886.866 191.964C887.364 191.3 887.62 190.35 887.635 189.115V188.324ZM894.109 193.041C894.593 193.041 895.015 192.894 895.376 192.601C895.738 192.308 895.938 191.942 895.977 191.502H897.259C897.234 191.957 897.078 192.389 896.79 192.799C896.502 193.209 896.116 193.536 895.633 193.78C895.154 194.024 894.646 194.146 894.109 194.146C893.03 194.146 892.171 193.788 891.531 193.07C890.896 192.347 890.579 191.361 890.579 190.111V189.884C890.579 189.112 890.721 188.426 891.004 187.826C891.287 187.225 891.692 186.759 892.22 186.427C892.752 186.095 893.379 185.929 894.102 185.929C894.991 185.929 895.728 186.195 896.314 186.727C896.905 187.259 897.22 187.95 897.259 188.8H895.977C895.938 188.287 895.743 187.867 895.391 187.54C895.044 187.208 894.615 187.042 894.102 187.042C893.414 187.042 892.879 187.291 892.498 187.789C892.122 188.282 891.934 188.998 891.934 189.935V190.191C891.934 191.104 892.122 191.808 892.498 192.301C892.874 192.794 893.411 193.041 894.109 193.041ZM905.257 194H903.902V190.616H900.262V194H898.899V186.075H900.262V189.51H903.902V186.075H905.257V194ZM907.081 189.964C907.081 189.188 907.232 188.49 907.535 187.87C907.842 187.25 908.267 186.771 908.809 186.434C909.356 186.097 909.979 185.929 910.677 185.929C911.756 185.929 912.627 186.302 913.292 187.049C913.96 187.796 914.295 188.79 914.295 190.03V190.125C914.295 190.897 914.146 191.59 913.848 192.206C913.555 192.816 913.133 193.292 912.581 193.634C912.034 193.976 911.404 194.146 910.691 194.146C909.617 194.146 908.746 193.773 908.077 193.026C907.413 192.279 907.081 191.29 907.081 190.06V189.964ZM908.443 190.125C908.443 191.004 908.646 191.71 909.051 192.242C909.461 192.774 910.008 193.041 910.691 193.041C911.38 193.041 911.927 192.772 912.332 192.235C912.737 191.693 912.94 190.936 912.94 189.964C912.94 189.095 912.732 188.392 912.317 187.855C911.907 187.313 911.36 187.042 910.677 187.042C910.008 187.042 909.468 187.308 909.058 187.84C908.648 188.373 908.443 189.134 908.443 190.125ZM916.119 194V186.075H919.209C920.264 186.075 921.072 186.261 921.634 186.632C922.2 186.998 922.483 187.538 922.483 188.25C922.483 188.617 922.374 188.949 922.154 189.247C921.934 189.54 921.609 189.764 921.18 189.92C921.658 190.033 922.042 190.252 922.33 190.58C922.623 190.907 922.769 191.297 922.769 191.751C922.769 192.479 922.5 193.036 921.963 193.421C921.431 193.807 920.677 194 919.7 194H916.119ZM917.474 190.521V192.909H919.715C920.281 192.909 920.704 192.804 920.982 192.594C921.265 192.384 921.407 192.088 921.407 191.708C921.407 190.917 920.826 190.521 919.664 190.521H917.474ZM917.474 189.437H919.224C920.494 189.437 921.128 189.066 921.128 188.324C921.128 187.582 920.528 187.198 919.327 187.174H917.474V189.437ZM931.038 194H929.683V190.616H926.043V194H924.681V186.075H926.043V189.51H929.683V186.075H931.038V194ZM932.862 189.964C932.862 189.188 933.013 188.49 933.316 187.87C933.624 187.25 934.048 186.771 934.59 186.434C935.137 186.097 935.76 185.929 936.458 185.929C937.537 185.929 938.409 186.302 939.073 187.049C939.742 187.796 940.076 188.79 940.076 190.03V190.125C940.076 190.897 939.927 191.59 939.629 192.206C939.336 192.816 938.914 193.292 938.362 193.634C937.815 193.976 937.186 194.146 936.473 194.146C935.398 194.146 934.527 193.773 933.858 193.026C933.194 192.279 932.862 191.29 932.862 190.06V189.964ZM934.224 190.125C934.224 191.004 934.427 191.71 934.832 192.242C935.242 192.774 935.789 193.041 936.473 193.041C937.161 193.041 937.708 192.772 938.113 192.235C938.519 191.693 938.721 190.936 938.721 189.964C938.721 189.095 938.514 188.392 938.099 187.855C937.688 187.313 937.142 187.042 936.458 187.042C935.789 187.042 935.25 187.308 934.839 187.84C934.429 188.373 934.224 189.134 934.224 190.125ZM946.902 186.075H948.257V194H946.902V188.221L943.248 194H941.893V186.075H943.248V191.861L946.902 186.075ZM947.269 183.189C947.269 183.78 947.066 184.256 946.661 184.618C946.26 184.974 945.733 185.152 945.079 185.152C944.424 185.152 943.895 184.972 943.489 184.61C943.084 184.249 942.881 183.775 942.881 183.189H943.987C943.987 183.531 944.08 183.8 944.266 183.995C944.451 184.186 944.722 184.281 945.079 184.281C945.42 184.281 945.687 184.186 945.877 183.995C946.072 183.805 946.17 183.536 946.17 183.189H947.269ZM899.178 212V204.075H902.269C903.323 204.075 904.131 204.261 904.693 204.632C905.259 204.998 905.542 205.538 905.542 206.25C905.542 206.617 905.433 206.949 905.213 207.247C904.993 207.54 904.668 207.764 904.239 207.92C904.717 208.033 905.101 208.252 905.389 208.58C905.682 208.907 905.828 209.297 905.828 209.751C905.828 210.479 905.56 211.036 905.022 211.421C904.49 211.807 903.736 212 902.759 212H899.178ZM900.533 208.521V210.909H902.774C903.34 210.909 903.763 210.804 904.041 210.594C904.324 210.384 904.466 210.088 904.466 209.708C904.466 208.917 903.885 208.521 902.723 208.521H900.533ZM900.533 207.437H902.283C903.553 207.437 904.188 207.066 904.188 206.324C904.188 205.582 903.587 205.198 902.386 205.174H900.533V207.437ZM910.281 206.968L912.039 204.075H913.621L911.028 207.994L913.702 212H912.134L910.303 209.034L908.472 212H906.897L909.571 207.994L906.978 204.075H908.545L910.281 206.968ZM914.559 207.964C914.559 207.188 914.71 206.49 915.013 205.87C915.32 205.25 915.745 204.771 916.287 204.434C916.834 204.097 917.457 203.929 918.155 203.929C919.234 203.929 920.105 204.302 920.77 205.049C921.438 205.796 921.773 206.79 921.773 208.03V208.125C921.773 208.897 921.624 209.59 921.326 210.206C921.033 210.816 920.611 211.292 920.059 211.634C919.512 211.976 918.882 212.146 918.169 212.146C917.095 212.146 916.224 211.773 915.555 211.026C914.891 210.279 914.559 209.29 914.559 208.06V207.964ZM915.921 208.125C915.921 209.004 916.124 209.71 916.529 210.242C916.939 210.774 917.486 211.041 918.169 211.041C918.858 211.041 919.405 210.772 919.81 210.235C920.215 209.693 920.418 208.936 920.418 207.964C920.418 207.095 920.21 206.392 919.795 205.855C919.385 205.313 918.838 205.042 918.155 205.042C917.486 205.042 916.946 205.308 916.536 205.84C916.126 206.373 915.921 207.134 915.921 208.125ZM922.879 210.894L923.348 210.315C923.875 209.632 924.175 208.606 924.249 207.239L924.373 204.075H929.478V210.894H930.496V214.329H929.141V212H923.611V214.329H922.256L922.264 210.894H922.879ZM924.483 210.894H928.123V205.328H925.684L925.604 207.217C925.521 208.794 925.147 210.02 924.483 210.894ZM877.278 225.671C877.278 224.568 877.425 223.508 877.718 222.493C878.016 221.477 878.458 220.554 879.043 219.724C879.629 218.894 880.237 218.308 880.867 217.966L881.146 218.86C880.433 219.407 879.847 220.242 879.388 221.365C878.934 222.488 878.685 223.745 878.641 225.137L878.633 225.759C878.633 227.644 878.978 229.28 879.666 230.667C880.081 231.497 880.574 232.146 881.146 232.615L880.867 233.442C880.218 233.081 879.598 232.476 879.007 231.626C877.854 229.966 877.278 227.981 877.278 225.671ZM888.953 222.075V230H887.591V223.196H884.896L884.734 226.162C884.646 227.524 884.417 228.499 884.046 229.084C883.68 229.67 883.096 229.976 882.295 230H881.753V228.806L882.142 228.777C882.581 228.728 882.896 228.474 883.086 228.015C883.277 227.556 883.399 226.707 883.453 225.466L883.599 222.075H888.953ZM894.417 230.146C893.343 230.146 892.469 229.795 891.795 229.092C891.121 228.384 890.784 227.439 890.784 226.257V226.008C890.784 225.222 890.933 224.521 891.231 223.906C891.534 223.286 891.954 222.803 892.491 222.456C893.033 222.104 893.619 221.929 894.249 221.929C895.279 221.929 896.08 222.268 896.651 222.947C897.222 223.625 897.508 224.597 897.508 225.862V226.426H892.139C892.159 227.207 892.386 227.839 892.82 228.323C893.26 228.801 893.816 229.041 894.49 229.041C894.969 229.041 895.374 228.943 895.706 228.748C896.038 228.552 896.329 228.293 896.578 227.971L897.405 228.616C896.741 229.636 895.745 230.146 894.417 230.146ZM894.249 223.042C893.702 223.042 893.243 223.242 892.872 223.643C892.5 224.038 892.271 224.595 892.183 225.312H896.153V225.21C896.114 224.521 895.928 223.989 895.596 223.613C895.264 223.232 894.815 223.042 894.249 223.042ZM902.261 229.041C902.745 229.041 903.167 228.894 903.528 228.601C903.89 228.308 904.09 227.942 904.129 227.502H905.411C905.386 227.957 905.23 228.389 904.942 228.799C904.654 229.209 904.268 229.536 903.785 229.78C903.306 230.024 902.798 230.146 902.261 230.146C901.182 230.146 900.323 229.788 899.683 229.07C899.048 228.347 898.731 227.361 898.731 226.111V225.884C898.731 225.112 898.873 224.426 899.156 223.826C899.439 223.225 899.844 222.759 900.372 222.427C900.904 222.095 901.531 221.929 902.254 221.929C903.143 221.929 903.88 222.195 904.466 222.727C905.057 223.259 905.372 223.95 905.411 224.8H904.129C904.09 224.287 903.895 223.867 903.543 223.54C903.196 223.208 902.767 223.042 902.254 223.042C901.565 223.042 901.031 223.291 900.65 223.789C900.274 224.282 900.086 224.998 900.086 225.935V226.191C900.086 227.104 900.274 227.808 900.65 228.301C901.026 228.794 901.563 229.041 902.261 229.041ZM912.823 223.174H910.164V230H908.809V223.174H906.202V222.075H912.823V223.174ZM920.616 230H919.261V226.616H915.621V230H914.258V222.075H915.621V225.51H919.261V222.075H920.616V230ZM927.925 222.075H929.28V230H927.925V224.221L924.271 230H922.916V222.075H924.271V227.861L927.925 222.075ZM931.573 222.075H932.935V228.894H936.583V222.075H937.938V228.894H938.882L938.75 232.351H937.535V230H931.573V222.075ZM945.24 230C945.162 229.844 945.098 229.565 945.049 229.165C944.419 229.819 943.667 230.146 942.793 230.146C942.012 230.146 941.37 229.927 940.867 229.487C940.369 229.043 940.12 228.481 940.12 227.803C940.12 226.978 940.433 226.338 941.058 225.884C941.688 225.425 942.571 225.195 943.709 225.195H945.027V224.573C945.027 224.099 944.886 223.723 944.603 223.445C944.319 223.162 943.902 223.02 943.35 223.02C942.867 223.02 942.461 223.142 942.134 223.386C941.807 223.63 941.644 223.926 941.644 224.272H940.281C940.281 223.877 940.42 223.496 940.699 223.13C940.982 222.759 941.363 222.466 941.841 222.251C942.325 222.036 942.854 221.929 943.431 221.929C944.344 221.929 945.059 222.158 945.577 222.617C946.094 223.071 946.363 223.699 946.382 224.5V228.147C946.382 228.875 946.475 229.453 946.661 229.883V230H945.24ZM942.991 228.967C943.416 228.967 943.819 228.857 944.2 228.638C944.581 228.418 944.856 228.132 945.027 227.781V226.155H943.965C942.305 226.155 941.475 226.641 941.475 227.612C941.475 228.037 941.617 228.369 941.9 228.608C942.183 228.848 942.547 228.967 942.991 228.967ZM951.634 225.745C951.634 226.833 951.49 227.878 951.202 228.879C950.918 229.875 950.481 230.796 949.891 231.641C949.305 232.485 948.689 233.086 948.045 233.442L947.759 232.615C948.511 232.039 949.114 231.145 949.568 229.934C950.027 228.718 950.262 227.371 950.271 225.891V225.657C950.271 224.631 950.164 223.679 949.949 222.8C949.734 221.917 949.434 221.125 949.048 220.427C948.667 219.729 948.238 219.185 947.759 218.794L948.045 217.966C948.689 218.323 949.302 218.918 949.883 219.753C950.469 220.588 950.906 221.509 951.194 222.515C951.487 223.521 951.634 224.597 951.634 225.745Z" fill="black"/>
<path d="M51.5 215.75V61H860V523.5H283.5H280.451L280.5 526.548L280.951 554.5H51.5V400V398.896L50.7846 398.056L32.5148 376.589L50.6966 357.043L52.4263 355.184L50.8779 353.171L32.4084 329.161L50.7198 309.018L52.3628 307.211L50.9262 305.235L32.4152 279.783L50.6473 261.095L52.4993 259.197L50.8426 257.126L32.5988 234.321L50.5222 217.966L51.5 217.074V215.75Z" stroke="black" stroke-width="6"/>
<rect x="281.5" y="59.5" width="112" height="114" stroke="black" stroke-width="3"/>
<rect x="396.5" y="59.5" width="102" height="175" stroke="black" stroke-width="3"/>
<rect x="396.5" y="236.5" width="102" height="42" stroke="black" stroke-width="3"/>
<rect x="626.5" y="329.5" width="119" height="192" stroke="black" stroke-width="3"/>
<rect x="748.5" y="329.5" width="109" height="72" stroke="black" stroke-width="3"/>
<rect x="703.5" y="237.5" width="154" height="53" stroke="black" stroke-width="3"/>
<rect x="733.5" y="132.5" width="124" height="41" stroke="black" stroke-width="3"/>
<rect x="655.5" y="220.5" width="45" height="70" stroke="black" stroke-width="3"/>
<rect x="748.5" y="404.5" width="109" height="117" stroke="black" stroke-width="3"/>
<rect x="733.5" y="59.5" width="124" height="70" stroke="black" stroke-width="3"/>
<rect x="281.5" y="410.5" width="118" height="111" stroke="black" stroke-width="3"/>
<rect x="281.5" y="314.5" width="118" height="93" stroke="black" stroke-width="3"/>
<rect x="402.5" y="317.5" width="116" height="204" stroke="black" stroke-width="3"/>
<rect x="281" y="524" width="581" height="59" stroke="black" stroke-width="2"/>
<rect x="50.5" y="471.5" width="76" height="80" stroke="black" stroke-width="3"/>
<rect x="126.5" y="471.5" width="85" height="85" stroke="black" stroke-width="3"/>
<rect x="500.5" y="59.5" width="58" height="169" stroke="black" stroke-width="3"/>
<rect x="281.5" y="176.5" width="112" height="102" stroke="black" stroke-width="3"/>
<rect x="685.5" y="115.5" width="45" height="39" stroke="black" stroke-width="3"/>
<rect x="213.5" y="471.5" width="65" height="85" stroke="black" stroke-width="3"/>
<line x1="277.5" y1="56.9698" x2="282.5" y2="470.97" stroke="black" stroke-width="5"/>
<line x1="500.008" y1="277.446" x2="516.008" y2="277.5" stroke="black" stroke-width="5"/>
<line x1="401.5" y1="558" x2="401.5" y2="523" stroke="black" stroke-width="5"/>
<line x1="515.5" y1="558" x2="515.5" y2="523" stroke="black" stroke-width="5"/>
<line x1="631.5" y1="558" x2="631.5" y2="523" stroke="black" stroke-width="5"/>
<line x1="746.5" y1="555" x2="746.5" y2="520" stroke="black" stroke-width="5"/>
<line x1="860.5" y1="555" x2="860.5" y2="520" stroke="black" stroke-width="5"/>
<line x1="621.004" y1="289.5" x2="654.004" y2="289.554" stroke="black" stroke-width="5"/>
<rect x="864.5" y="554.5" width="68" height="28" stroke="black" stroke-width="3"/>
<rect x="874.5" y="554.5" width="10" height="28" stroke="black" stroke-width="3"/>
<rect x="874.5" y="554.5" width="10" height="28" stroke="black" stroke-width="3"/>
<rect x="894.5" y="554.5" width="10" height="28" stroke="black" stroke-width="3"/>
<rect x="912.5" y="554.5" width="10" height="28" stroke="black" stroke-width="3"/>
<rect x="763.5" y="176.5" width="94" height="58" stroke="black" stroke-width="3"/>
<rect x="777.5" y="176.5" width="14" height="58" stroke="black" stroke-width="3"/>
<rect x="777.5" y="176.5" width="14" height="58" stroke="black" stroke-width="3"/>
<rect x="804.5" y="176.5" width="15" height="58" stroke="black" stroke-width="3"/>
<rect x="829.5" y="176.5" width="14" height="58" stroke="black" stroke-width="3"/>
<path d="M434.591 28.9141V41H432.997V30.2256H428.664L428.448 35.0151C428.365 36.62 428.199 37.8263 427.95 38.6343C427.707 39.4422 427.347 40.0371 426.871 40.4189C426.395 40.7952 425.759 40.9889 424.962 41H424.439V39.6968L424.771 39.6802C425.286 39.6414 425.681 39.4754 425.958 39.1821C426.235 38.8833 426.445 38.4102 426.589 37.7627C426.733 37.1152 426.835 36.1191 426.896 34.7744L427.145 28.9141H434.591ZM440.974 41.166C439.757 41.166 438.766 40.7676 438.002 39.9707C437.239 39.1683 436.857 38.0975 436.857 36.7583V36.4761C436.857 35.5851 437.026 34.791 437.363 34.0938C437.706 33.391 438.182 32.8431 438.791 32.4502C439.405 32.0518 440.069 31.8525 440.783 31.8525C441.951 31.8525 442.858 32.2371 443.506 33.0063C444.153 33.7756 444.477 34.8768 444.477 36.3101V36.9492H438.393C438.415 37.8346 438.672 38.5513 439.165 39.0991C439.663 39.6414 440.293 39.9126 441.057 39.9126C441.599 39.9126 442.059 39.8019 442.435 39.5806C442.811 39.3592 443.141 39.0659 443.423 38.7007L444.361 39.4312C443.608 40.5877 442.479 41.166 440.974 41.166ZM440.783 33.1143C440.163 33.1143 439.643 33.3411 439.223 33.7949C438.802 34.2432 438.542 34.874 438.442 35.6875H442.941V35.5713C442.897 34.791 442.687 34.1878 442.311 33.7617C441.934 33.3301 441.425 33.1143 440.783 33.1143ZM449.864 39.9126C450.412 39.9126 450.891 39.7466 451.3 39.4146C451.71 39.0825 451.937 38.6675 451.981 38.1694H453.434C453.406 38.6841 453.229 39.1738 452.902 39.6387C452.576 40.1035 452.139 40.4743 451.591 40.751C451.049 41.0277 450.473 41.166 449.864 41.166C448.641 41.166 447.667 40.7593 446.942 39.9458C446.223 39.1268 445.863 38.009 445.863 36.5923V36.335C445.863 35.4606 446.024 34.6831 446.345 34.0024C446.666 33.3218 447.125 32.7933 447.723 32.417C448.326 32.0407 449.037 31.8525 449.856 31.8525C450.863 31.8525 451.699 32.1541 452.363 32.7573C453.032 33.3605 453.389 34.1436 453.434 35.1064H451.981C451.937 34.5254 451.715 34.0495 451.317 33.6787C450.924 33.3024 450.437 33.1143 449.856 33.1143C449.076 33.1143 448.47 33.3965 448.038 33.9609C447.612 34.5199 447.399 35.3306 447.399 36.3931V36.6836C447.399 37.7184 447.612 38.5153 448.038 39.0742C448.464 39.6331 449.073 39.9126 449.864 39.9126ZM461.834 33.2637H458.821V41H457.285V33.2637H454.33V32.0186H461.834V33.2637ZM470.666 41H469.13V37.165H465.005V41H463.461V32.0186H465.005V35.9116H469.13V32.0186H470.666V41ZM478.95 32.0186H480.486V41H478.95V34.4507L474.808 41H473.272V32.0186H474.808V38.5762L478.95 32.0186ZM483.084 32.0186H484.628V39.7466H488.762V32.0186H490.297V39.7466H491.368L491.219 43.6646H489.841V41H483.084V32.0186ZM498.573 41C498.485 40.8229 498.413 40.5075 498.357 40.0537C497.644 40.7952 496.791 41.166 495.801 41.166C494.915 41.166 494.188 40.917 493.618 40.4189C493.053 39.9154 492.771 39.279 492.771 38.5098C492.771 37.5745 493.125 36.8496 493.833 36.335C494.547 35.8148 495.549 35.5547 496.838 35.5547H498.333V34.8491C498.333 34.3123 498.172 33.8862 497.851 33.5708C497.53 33.2498 497.057 33.0894 496.432 33.0894C495.884 33.0894 495.424 33.2277 495.054 33.5044C494.683 33.7811 494.498 34.1159 494.498 34.5088H492.954C492.954 34.0605 493.111 33.6289 493.427 33.2139C493.748 32.7933 494.179 32.4613 494.722 32.2178C495.27 31.9743 495.87 31.8525 496.523 31.8525C497.558 31.8525 498.368 32.1126 498.955 32.6328C499.542 33.1475 499.846 33.8586 499.868 34.7661V38.8999C499.868 39.7244 499.973 40.3802 500.184 40.8672V41H498.573ZM496.025 39.8296C496.506 39.8296 496.963 39.7051 497.395 39.4561C497.826 39.207 498.139 38.8833 498.333 38.4849V36.6421H497.129C495.247 36.6421 494.307 37.1927 494.307 38.2939C494.307 38.7754 494.467 39.1517 494.788 39.4229C495.109 39.694 495.521 39.8296 496.025 39.8296ZM513.83 41H512.294V37.165H508.169V41H506.625V32.0186H508.169V35.9116H512.294V32.0186H513.83V41ZM521.849 41C521.76 40.8229 521.688 40.5075 521.633 40.0537C520.919 40.7952 520.067 41.166 519.076 41.166C518.191 41.166 517.463 40.917 516.893 40.4189C516.329 39.9154 516.046 39.279 516.046 38.5098C516.046 37.5745 516.401 36.8496 517.109 36.335C517.823 35.8148 518.824 35.5547 520.114 35.5547H521.608V34.8491C521.608 34.3123 521.447 33.8862 521.126 33.5708C520.806 33.2498 520.332 33.0894 519.707 33.0894C519.159 33.0894 518.7 33.2277 518.329 33.5044C517.958 33.7811 517.773 34.1159 517.773 34.5088H516.229C516.229 34.0605 516.387 33.6289 516.702 33.2139C517.023 32.7933 517.455 32.4613 517.997 32.2178C518.545 31.9743 519.145 31.8525 519.798 31.8525C520.833 31.8525 521.644 32.1126 522.23 32.6328C522.817 33.1475 523.121 33.8586 523.144 34.7661V38.8999C523.144 39.7244 523.249 40.3802 523.459 40.8672V41H521.849ZM519.3 39.8296C519.782 39.8296 520.238 39.7051 520.67 39.4561C521.102 39.207 521.414 38.8833 521.608 38.4849V36.6421H520.404C518.523 36.6421 517.582 37.1927 517.582 38.2939C517.582 38.7754 517.743 39.1517 518.063 39.4229C518.384 39.694 518.797 39.8296 519.3 39.8296ZM536.549 41H535.005V37.7461C534.33 37.9232 533.639 38.0117 532.93 38.0117C531.807 38.0117 530.949 37.724 530.357 37.1484C529.77 36.5729 529.472 35.7539 529.46 34.6914V32.0103H530.996V34.7412C531.024 36.0804 531.668 36.75 532.93 36.75C533.639 36.75 534.33 36.6615 535.005 36.4844V32.0186H536.549V41ZM542.742 41.166C541.524 41.166 540.534 40.7676 539.77 39.9707C539.006 39.1683 538.625 38.0975 538.625 36.7583V36.4761C538.625 35.5851 538.793 34.791 539.131 34.0938C539.474 33.391 539.95 32.8431 540.559 32.4502C541.173 32.0518 541.837 31.8525 542.551 31.8525C543.718 31.8525 544.626 32.2371 545.273 33.0063C545.921 33.7756 546.245 34.8768 546.245 36.3101V36.9492H540.16C540.182 37.8346 540.44 38.5513 540.932 39.0991C541.43 39.6414 542.061 39.9126 542.825 39.9126C543.367 39.9126 543.826 39.8019 544.203 39.5806C544.579 39.3592 544.908 39.0659 545.19 38.7007L546.128 39.4312C545.376 40.5877 544.247 41.166 542.742 41.166ZM542.551 33.1143C541.931 33.1143 541.411 33.3411 540.99 33.7949C540.57 34.2432 540.31 34.874 540.21 35.6875H544.709V35.5713C544.665 34.791 544.454 34.1878 544.078 33.7617C543.702 33.3301 543.193 33.1143 542.551 33.1143ZM555.616 36.6089C555.616 37.9757 555.304 39.077 554.678 39.9126C554.053 40.7482 553.206 41.166 552.138 41.166C551.048 41.166 550.19 40.8201 549.565 40.1284V44.4531H548.029V32.0186H549.432L549.507 33.0146C550.132 32.2399 551.001 31.8525 552.113 31.8525C553.192 31.8525 554.045 32.2593 554.67 33.0728C555.301 33.8862 555.616 35.0179 555.616 36.4678V36.6089ZM554.081 36.4346C554.081 35.4219 553.865 34.6222 553.433 34.0356C553.001 33.4491 552.409 33.1558 551.657 33.1558C550.727 33.1558 550.03 33.568 549.565 34.3926V38.6841C550.024 39.5031 550.727 39.9126 551.673 39.9126C552.409 39.9126 552.993 39.6221 553.425 39.041C553.862 38.4544 554.081 37.5856 554.081 36.4346ZM557.351 39.7466L557.882 39.0908C558.48 38.3161 558.82 37.154 558.903 35.6045L559.044 32.0186H564.83V39.7466H565.984V43.6396H564.448V41H558.181V43.6396H556.646L556.654 39.7466H557.351ZM559.169 39.7466H563.294V33.438H560.53L560.439 35.5796C560.345 37.367 559.922 38.756 559.169 39.7466ZM573.23 41C573.142 40.8229 573.07 40.5075 573.015 40.0537C572.301 40.7952 571.449 41.166 570.458 41.166C569.573 41.166 568.845 40.917 568.275 40.4189C567.71 39.9154 567.428 39.279 567.428 38.5098C567.428 37.5745 567.782 36.8496 568.491 36.335C569.205 35.8148 570.206 35.5547 571.496 35.5547H572.99V34.8491C572.99 34.3123 572.829 33.8862 572.508 33.5708C572.187 33.2498 571.714 33.0894 571.089 33.0894C570.541 33.0894 570.082 33.2277 569.711 33.5044C569.34 33.7811 569.155 34.1159 569.155 34.5088H567.611C567.611 34.0605 567.769 33.6289 568.084 33.2139C568.405 32.7933 568.837 32.4613 569.379 32.2178C569.927 31.9743 570.527 31.8525 571.18 31.8525C572.215 31.8525 573.026 32.1126 573.612 32.6328C574.199 33.1475 574.503 33.8586 574.525 34.7661V38.8999C574.525 39.7244 574.631 40.3802 574.841 40.8672V41H573.23ZM570.682 39.8296C571.164 39.8296 571.62 39.7051 572.052 39.4561C572.483 39.207 572.796 38.8833 572.99 38.4849V36.6421H571.786C569.905 36.6421 568.964 37.1927 568.964 38.2939C568.964 38.7754 569.124 39.1517 569.445 39.4229C569.766 39.694 570.179 39.8296 570.682 39.8296ZM579.73 37.1733H578.609V41H577.065V32.0186H578.609V35.8203H579.614L582.635 32.0186H584.495L580.942 36.335L584.793 41H582.843L579.73 37.1733Z" fill="black"/>
<line x1="692.007" y1="119.889" x2="724.007" y2="148.889" stroke="#FF0000" stroke-width="3"/>
<line x1="692.975" y1="148.905" x2="723.975" y2="119.905" stroke="#FF0000" stroke-width="3"/>
<line x1="692.007" y1="119.889" x2="724.007" y2="148.889" stroke="#FF0000" stroke-width="3"/>
<line x1="692.975" y1="148.905" x2="723.975" y2="119.905" stroke="#FF0000" stroke-width="3"/>
<line y1="-2.5" x2="437.223" y2="-2.5" transform="matrix(0.45205 0.891992 -0.384263 0.923224 60 73)" stroke="#FF0000" stroke-width="5"/>
<line y1="-2.5" x2="434.466" y2="-2.5" transform="matrix(0.440703 -0.897653 0.394753 0.918787 78.5294 463)" stroke="#FF0000" stroke-width="5"/>
<line y1="-2.5" x2="130.274" y2="-2.5" transform="matrix(0.708009 0.706203 -0.635643 0.771983 291 420)" stroke="#FF0000" stroke-width="5"/>
<line y1="-2.5" x2="128.25" y2="-2.5" transform="matrix(0.696711 -0.717351 0.647626 0.761958 299.647 512)" stroke="#FF0000" stroke-width="5"/>
</g>
<defs>
<clipPath id="clip0">
<rect width="997" height="629" fill="white"/>
</clipPath>
</defs>
</svg>
